<svg xmlns="http://www.w3.org/2000/svg" viewBox="0 0 363.12 400.07"><g transform="translate(49.37,-16.14) scale(2.7397)"><g fill="#6e4636" stroke="#6e4636" stroke-width="3.4" stroke-linejoin="round" stroke-linecap="round"><circle cx="41" cy="24" r="9.5"/><path d="M 41.00 36.00 L 59.00 43.00 L 62.00 60.00 L 57.50 82.00 L 24.50 82.00 L 20.00 60.00 L 23.00 43.00 Z"/></g><g fill="#d4744f" stroke="#d4744f" stroke-width="3.4" stroke-linejoin="round" stroke-linecap="round"><circle cx="60" cy="21" r="8"/><path d="M 60.00 33.00 L 76.50 40.00 L 69.50 64.00 L 70.00 82.00 L 50.00 82.00 L 50.50 64.00 L 43.50 40.00 Z"/></g></g><g transform="translate(13.87,350.40)"><path d="M24.90980177266257 -98.02945294976234Q24.989339551755357 -98.98820579051971 25.788634691919597 -99.49410289525986Q26.587929832083837 -100.0 27.950569489172526 -100.0H76.91087501389639Q80.59057254876409 -100.0 82.64144346756595 -101.19957636722496Q84.6923143863678 -102.39915273444993 86.41497477463314 -102.39915273444993Q88.62170504672186 -102.39915273444993 89.01396570035389 -99.89375128490583L90.99587087546075 -78.72575655579567Q91.25628430077008 -77.35816640087536 90.80311940610409 -76.60602822686944Q90.3499545114381 -75.85389005286352 89.35173758012907 -75.76550575239317Q88.17615530746323 -75.67712145192282 87.41971286918435 -76.38736692709581Q86.66327043090547 -77.09761240226881 85.9262075637068 -78.67925567286355L84.45333640490259 -83.29144907849175Q83.03334069677761 -88.1041159416948 81.20190571461404 -91.02098076045513Q79.37047073245049 -93.93784557921545 76.69169775503022 -95.24820843977587Q74.01292477760995 -96.55857130033628 69.96761774591037 -96.55857130033628H51.13993052925382Q49.83657219154494 -91.95880774089268 48.14705969393253 -85.86721282133034Q46.45754719632012 -79.775617901768 44.547928218330654 -72.75250536629132Q42.63830924034119 -65.72939283081463 40.659252390265465 -58.33573639392853Q38.68019554018974 -50.94207995704242 36.76984235218593 -43.71167641026633Q34.859489164182115 -36.48127286349024 33.14847409938063 -29.937990780387604Q31.43745903457914 -23.39470869728497 30.084985366889406 -18.100248317633355Q28.732511699199677 -12.80578793798174 27.912071985857825 -9.337106879268374Q27.395842782088685 -7.444957758699144 27.790327989629333 -6.255606945071901Q28.184813197169984 -5.066256131444658 30.399348195110047 -4.764312641961234L37.56235954591206 -3.9934881116662706Q38.95147403648921 -3.814669719764164 39.609044102685786 -3.338683573263032Q40.26661416888237 -2.8626974267618994 40.26661416888237 -2.1514152331011633Q40.26661416888237 -1.1926623923437936 39.44389294513634 -0.5963311961718968Q38.62117172139031 0.0 36.759512765066965 0.0H2.5932762026786804Q1.2340257849012102 0.0 0.6706342207533972 -0.4871872578348432Q0.10724265660558427 -0.9743745156696864 0.13375524963651383 -1.8270661958626337Q0.18678043569837297 -2.6709167488983696 0.8827349650008337 -3.2251147116933545Q1.5786894943032945 -3.77931267448834 3.1493953679289133 -4.073027959891728L8.037227677447454 -4.848577852760042Q9.815182783773967 -5.177033935274396 10.824863255023956 -6.241872121180807Q11.834543726273944 -7.306710307087217 12.44738004037312 -9.349216180188314Q13.615999162197113 -13.361839979887009 15.173189229198863 -18.863676147801534Q16.730379296200613 -24.36551231571606 18.505677459495406 -30.807449881519588Q20.280975622790198 -37.249387447323116 22.13151871732303 -44.11833785048553Q23.98206181185586 -50.98728825364794 25.78430135122367 -57.80696431015218Q27.586540890591483 -64.62664036665643 29.216318162424223 -70.87886592532907Q30.84609543425696 -77.1310914840017 32.147234175886425 -82.32117867256913Q33.44837291751589 -87.51126586113656 34.30077171751431 -91.06698305266244Q34.74218643563134 -93.02452209166117 34.2163462638855 -93.95122746271745Q33.69050609213965 -94.87793283377374 32.232866308518815 -95.19210668972559L27.17289792214121 -96.11934613330023Q25.995047373431067 -96.4634238907269 25.42591198001589 -96.87312316043037Q24.85677658660071 -97.28282243013382 24.90980177266257 -98.02945294976234ZM32.83552399703434 -50.29649423275675H55.866274795361925Q59.6594232065337 -50.29649423275675 62.09292317926884 -52.65952168405056Q64.52642315200397 -55.02254913534436 65.30709027392523 -61.26963067906243Q65.5233337538583 -62.18357368026461 65.98642686648029 -62.64362899320466Q66.44951997910226 -63.103684306144714 67.20498623166765 -63.103684306144714Q68.1923068506377 -63.103684306144714 68.71895653648036 -62.53211697936058Q69.245606222323 -61.96054965257645 69.42309056009564 -60.87783698099L72.84402099251747 -37.72528194529669Q73.12828762190682 -36.22160440683365 72.58098920328277 -35.55856730469635Q72.0336907846587 -34.89553020255906 71.06404163156236 -34.807758825165884Q70.2215251326561 -34.754007113831385 69.66327629770552 -35.21842618925231Q69.10502746275493 -35.68284526467323 68.59363722375461 -36.70017385482788Q67.17426773905754 -40.33407495277268 65.56541680651051 -42.54946246956075Q63.95656587396349 -44.76484998634883 61.706472562892095 -45.78344516669Q59.4563792518207 -46.80204034703118 55.96601031933512 -46.80204034703118H31.678821597780498Z M122.67247092723846 -65.57555920311383Q130.8923460287707 -65.34493940217153 136.65587930381298 -61.400857203773086Q142.41941257885523 -57.45677500537463 144.91346688994338 -50.2988785633019Q147.40752120103156 -43.14098212122917 145.72337656787462 -33.1931343121188Q144.44940204705512 -25.643715594496044 141.02245407232215 -19.24552097916603Q137.5955060975892 -12.847326363836014 132.47810588351317 -8.170446636421339Q127.36070566943712 -3.4935669090066637 120.98135476452963 -0.971714158143316Q114.60200385962213 1.5501385927200317 107.39671088542256 1.3910630345344543Q99.47283678395407 1.231987476348877 93.66663516845021 -2.5762673807995657Q87.86043355294636 -6.384522237948008 85.27334946393967 -13.523656391671725Q82.68626537493297 -20.662790545395442 84.31532424262592 -30.686295036758693Q85.67573608670915 -38.56729649220194 89.1555255140577 -45.06391120595591Q92.63531494140625 -51.56052591970988 97.78140399924345 -56.2428521407502Q102.92749305708067 -60.925178361790515 109.27288150361605 -63.378934979438775Q115.61826995015144 -65.83269159708703 122.67247092723846 -65.57555920311383ZM107.61495228324617 -2.8902294252599985Q110.64747116395405 -2.6957947526659285 113.63041525866305 -4.304871041859899Q116.61335935337203 -5.91394733105387 119.3681014669793 -8.980711862444878Q122.12284358058656 -12.047476393835884 124.4503564110824 -16.262484028935432Q126.77786924157823 -20.47749166403498 128.51925763913562 -25.571434810757637Q130.260646036693 -30.665377957480292 131.21754806382313 -36.29721232822963Q132.77710996781076 -44.612765772002085 132.092399548207 -50.02029659492629Q131.40768912860324 -55.427827417850494 128.94231095910072 -58.196457439235274Q126.47693278959818 -60.96508746062006 122.612224395786 -61.29426674331937Q119.56263618384088 -61.55407263977187 116.56734605133533 -59.98585336548941Q113.57205591882978 -58.417634091206956 110.79171147091049 -55.35904096279825Q108.01136702299118 -52.300447834389544 105.64499556166786 -48.04458318437848Q103.27862410034452 -43.788718534367426 101.5174447872809 -38.588547148874824Q99.75626547421727 -33.38837576338223 98.77212432878358 -27.59311333298683Q97.20711593117032 -19.1644943015916 97.96064568417412 -13.797153466514178Q98.71417543717793 -8.429812631436755 101.2583011580365 -5.797009951301982Q103.80242687889508 -3.16420727116721 107.61495228324617 -2.8902294252599985Z M156.1783503123692 -51.539180372442516Q155.60787007638385 -51.82817236440522 155.62929507877143 -52.588371036308146Q155.65072008115902 -53.34856970821108 156.25934114200726 -54.503218991415835Q158.29845852937015 -57.896727008478976 161.13192281978468 -60.360870516725946Q163.96538711019923 -62.825014024972916 167.31570723439964 -64.16081380418368Q170.66602735860005 -65.49661358339445 174.18695012160708 -65.49661358339445Q177.7222545998437 -65.49661358339445 179.59219868694032 -63.813355526753824Q181.46214277403695 -62.130097470113206 181.46214277403695 -58.85681792242186Q181.46214277403695 -56.14348549502236 180.4229150137731 -52.66714950544493Q179.38368725350924 -49.190813515867504 177.86310880737642 -45.18192985653877Q176.34253036124363 -41.173046197210034 174.84920395697864 -36.89136443606444Q173.35587755271365 -32.60968267491885 172.45446081246646 -28.31217129741396L171.54451332347733 -28.470051305634634Q173.96909670318874 -36.695051793541225 177.4118989514453 -43.48651530274323Q180.85470119970185 -50.27797881194523 184.9256485466446 -55.20355180331639Q188.99659589358737 -60.12912479468754 193.36547980138232 -62.812869189040995Q197.73436370917727 -65.49661358339445 202.02745321393013 -65.49661358339445Q206.82620004245211 -65.49661358339445 209.21020184883048 -62.62257772471223Q211.59420365520884 -59.74854186603001 211.37094784208705 -55.17883074709347Q211.19805782607622 -51.84518717867987 209.9345115976674 -49.43863736731665Q208.6709653692586 -47.03208755595343 206.72041087278296 -45.75057378198419Q204.76985637630733 -44.46906000801495 202.45161725367817 -44.46906000801495Q199.9974064188344 -44.46906000801495 198.7215199534382 -45.64415807809148Q197.445633488042 -46.819256148168016 197.445633488042 -48.59013218113354Q197.445633488042 -50.06085531626429 197.86258913576603 -51.41420527441161Q198.27954478349002 -52.76755523255893 198.27954478349002 -54.18778817994254Q198.27954478349002 -55.81756404042244 197.59364747362474 -56.77560851829392Q196.9077501637595 -57.73365299616541 195.3461413511208 -57.73365299616541Q192.2959555855819 -57.73365299616541 188.29198588430882 -53.92616214283875Q184.2880161830357 -50.118671289512086 180.13567795285155 -42.5665030415569Q175.9833397226674 -35.01433479360171 172.4445259443351 -23.729634710720607Q170.93446643437656 -18.999945363828115 170.13204545208384 -16.01178878545761Q169.32962446979113 -13.023632207087108 169.32962446979113 -10.697112313338687Q169.32962446979113 -9.074797860213687 169.98981597380975 -8.167703247496059Q170.6500074778284 -7.260608634778431 171.32345527836253 -6.507327603442327Q171.99690307889665 -5.754046572106224 171.99690307889665 -4.483671056372779Q171.99690307889665 -3.0648641884326935 170.40459101114953 -1.684259335909571Q168.81227894340242 -0.30365448338644846 165.8948493791478 0.5569605720894677Q162.97741981489315 1.417575627565384 158.99940087965555 1.417575627565384Q156.10451057127543 1.417575627565384 154.76663045372283 0.1381862908601761Q153.4287503361702 -1.1412030458450317 153.51003724549497 -3.716250913483756Q153.59132415481974 -6.29129878112248 154.87742415922028 -10.200065336057117L166.52456323589595 -46.39745787637574Q168.52260835255893 -52.483586507184164 168.04888000445703 -54.762503841093604Q167.57515165635516 -57.04142117500305 165.58328702194348 -57.04142117500305Q164.31853062765938 -57.04142117500305 162.71419629667486 -56.09936624552522Q161.10986196569033 -55.15731131604739 158.6868901508195 -52.54839436071259Q157.84643090622765 -51.76908029828753 157.27589656625474 -51.54432103250708Q156.70536222628184 -51.31956176672663 156.1783503123692 -51.539180372442516Z M259.6022237922464 -0.759909655366625Q256.66107040217946 11.771066972187587 250.18933482255255 19.84355594430651Q243.71759924292564 27.91604491642543 234.31107869318555 31.793866617339Q224.90455814344543 35.67168831825256 213.11037866558348 35.67168831825256Q205.66091038073813 35.67168831825256 201.96267305527414 33.38117223552295Q198.26443572981017 31.090656152793336 198.26443572981017 27.501421941178183Q198.26443572981017 25.03644915989467 200.01866333825248 23.336024041686738Q201.7728909466948 21.635598923478806 204.8774560221604 21.635598923478806Q207.4066965026515 21.635598923478806 209.65431832628593 22.90593068727425Q211.90194014992034 24.176262451069693 214.06316567531655 25.872094910059655Q216.22439120071274 27.567927369049617 218.4423883919205 28.83825913284506Q220.66038558312826 30.108590896640504 223.0719051190785 30.108590896640504Q227.31406232288904 30.108590896640504 231.24350245296955 28.044713622757364Q235.17294258305003 25.980836348874227 238.3390239796468 21.403815220509255Q241.5051053762436 16.826794092144283 243.3683830499649 9.299954495259692L253.44562708905764 -30.157522516591207L255.0612974890641 -29.1192372909614Q251.1175544645105 -19.07385046992983 246.03411950170994 -12.259581987346921Q240.95068453890937 -5.4453135047640115 235.1314977088145 -2.0189538321324756Q229.3123108787196 1.4074058404990604 223.05792023454393 1.4074058404990604Q218.54876213840075 1.4074058404990604 215.14890107086725 -0.6588400112731116Q211.74904000333376 -2.7250858630452837 210.09127400389738 -7.09267077914306Q208.433508004461 -11.460255695240837 209.08120492526464 -18.353375541312353Q209.72006071891104 -25.701666482857295 212.52411120704244 -32.62775416459356Q215.3281616951738 -39.553841846329824 219.94402564849173 -45.52818064178739Q224.55988960180963 -51.502519437244956 230.6514966913632 -55.998288629310466Q236.74310378091675 -60.49405782137598 243.9652441803898 -63.02184829541615Q251.18738457986285 -65.54963876945631 259.20537715298786 -65.54963876945631Q264.49053396497453 -65.54963876945631 268.22479200788905 -64.8180788201945Q271.95905005080357 -64.08651887093271 273.90033150357857 -62.88333653765065Q275.8416129563536 -61.68015420436859 275.73555179578915 -60.29210340976715Q275.6471674953188 -59.05574756009238 274.9186930209398 -58.43588373490742Q274.1902185465608 -57.81601990972246 273.4066583067179 -57.17200347568307Q272.6230980668749 -56.527987041643684 272.32587454574445 -55.23036908251898ZM223.37538879258292 -19.268336943217687Q222.85893696546555 -13.917695305177142 223.71908836066723 -10.922035702637263Q224.5792397558689 -7.926376100097383 226.26280170253347 -6.72572468646935Q227.946363649198 -5.525073272841317 229.9474194390433 -5.525073272841317Q233.41043263673782 -5.525073272841317 237.14426101744175 -8.474476414067404Q240.87808939814568 -11.42387955529349 244.46095578798224 -16.47301734132426Q248.04382217781884 -21.52215512735503 251.0481974823134 -27.8360045509679Q254.052572786808 -34.149853974580765 256.0733832035746 -40.977353068334715Q258.0941936203412 -47.804852162088665 258.67945534416606 -54.19978212032999Q259.1557539446013 -57.730868463005336 258.36931890462125 -59.47649441446576Q257.5828838646412 -61.222120365926195 255.23807707003184 -61.222120365926195Q250.9810023861272 -61.222120365926195 246.65594993744577 -58.909098523003706Q242.33089748876435 -56.596076680081225 238.38065770055567 -52.508177772164345Q234.43041791234697 -48.42027886424746 231.2362791938441 -43.08438809428896Q228.04214047534126 -37.748497324330465 225.97649600463254 -31.66190079280308Q223.91085153392382 -25.575304261275697 223.37538879258292 -19.268336943217687Z M284.3595385381154 -29.732934555837083Q284.3595385381154 -29.732934555837083 287.06400132392133 -30.750957239951404Q289.7684641097273 -31.768979924065725 294.0803647977965 -33.37712691298553Q298.3922654858657 -34.98527390190533 303.2628854449306 -36.82193099600928Q308.1335054039955 -38.65858809011323 312.58622160128186 -40.32575977700097Q317.03893779856816 -41.99293146388871 319.9750280337674 -43.09195790120533L318.44858544639175 -41.193009538309916Q319.03843277267043 -42.83241201724325 319.3847525226218 -45.0746836066246Q319.73107227257316 -47.31695519600596 319.7596454450062 -50.47841777546065Q319.7705417573452 -55.37304826293673 317.84896424838473 -58.522401415875976Q315.92738673942426 -61.67175456881523 312.7289988952023 -61.67175456881523Q309.38147600633755 -61.67175456881523 305.91398211887906 -59.19496897288731Q302.4464882314205 -56.71818337695939 299.3918812743255 -52.2281004594905Q296.3372743172305 -47.73801754202161 294.17266212403774 -41.622644064681865Q292.00804993084495 -35.50727058734213 291.28263323647633 -28.222587751490728Q290.24692252704074 -17.52102839946747 294.0671271660498 -12.008198846663747Q297.88733180505886 -6.495369293860026 305.2771868748324 -6.495369293860026Q309.60972716978614 -6.495369293860026 313.60545878750935 -8.21375333411353Q317.60119040523256 -9.932137374367032 320.86097845648015 -13.311513809221132Q324.12076650772775 -16.69089024407523 326.18155087317734 -21.666724652051926Q326.9139153489044 -22.796907808099473 327.4857918343373 -23.2141114537205Q328.05766831977024 -23.631315099341528 328.75127904755726 -23.591845614569525Q329.5631759081568 -23.56327244213649 330.00581045023034 -22.839030659624505Q330.44844499230385 -22.114788877112524 330.05399604354585 -20.568481074912206Q328.3804923508848 -14.486857874052864 324.1698635071516 -9.485806192670548Q319.95923466341833 -4.484754511288234 313.44167667414456 -1.5468457383768897Q306.92411868487085 1.3910630345344543 298.230551302433 1.3910630345344543Q290.65499304447854 1.3910630345344543 285.6056455884661 -1.6817207613161629Q280.5562981324536 -4.75450455716678 278.3122645850692 -10.58626155555248Q276.0682310376848 -16.418018553938182 276.82222962379456 -24.68295372383935Q277.56460537229265 -32.97787867273603 280.8954896564994 -40.362926891871865Q284.22637394070625 -47.74797511100769 289.4771322693143 -53.43646691739559Q294.72789059792245 -59.12495872378349 301.2662670952933 -62.378524011799264Q307.80464359266415 -65.63208929981504 314.9334305950573 -65.63208929981504Q320.3932181511606 -65.63208929981504 324.05059959207256 -63.41403364496571Q327.70798103298455 -61.19597799011639 329.597657165357 -57.51604468694755Q331.4873332977295 -53.83611138377871 331.6381935094084 -49.400838132415494Q331.6980046374457 -48.42406429988997 332.1779093295336 -47.83064049056598Q332.6578140216214 -47.23721668124199 333.6429275912898 -47.27533467326845Q334.4481413236686 -47.323625777448925 334.84154753174096 -46.99722321757248Q335.23495373981336 -46.67082065769604 335.25129654577796 -46.03230648381369Q335.2839821577072 -45.26460779564721 334.6247641124895 -44.59824158038411Q333.9655460672719 -43.93187536512102 332.1236083677837 -43.28525737779481Q330.02102545755247 -42.56176639454705 325.7581584560019 -41.04119127350194Q321.4952914544514 -39.520616152456824 316.16003239793434 -37.59925944890294Q310.8247733414173 -35.677902745349066 305.32844391890933 -33.7047927145447Q299.83211449640135 -31.731682683740342 295.1799202603953 -30.065655139940127Q290.52772602438927 -28.399627596139908 287.67929221902574 -27.364224131618226Q284.8308584136622 -26.328820667096544 284.8308584136622 -26.328820667096544Z" fill="#f0ece3"/></g></svg>